<svg width="16" height="16" viewBox="0 0 16 16" fill="none" xmlns="http://www.w3.org/2000/svg">
<path d="M14.3683 1.62154C14.3629 1.59562 14.3503 1.57178 14.3319 1.55278C14.3134 1.53379 14.29 1.52045 14.2642 1.51431C12.5483 1.09478 8.58359 2.5898 6.43554 4.73696C6.05242 5.11699 5.70315 5.52968 5.3917 5.97036C4.72929 5.91177 4.06689 5.96069 3.50234 6.20679C1.90947 6.90786 1.4457 8.73716 1.3165 9.52407C1.30917 9.56714 1.31194 9.61133 1.32458 9.65315C1.33722 9.69497 1.35939 9.73329 1.38934 9.76509C1.4193 9.79689 1.45623 9.82131 1.49722 9.83643C1.53821 9.85154 1.58215 9.85694 1.62558 9.8522L4.18349 9.57007C4.18532 9.76292 4.19696 9.95555 4.21836 10.1472C4.23123 10.2803 4.29031 10.4047 4.38535 10.4988L5.37587 11.487C5.47003 11.5819 5.59438 11.6409 5.72744 11.654C5.91803 11.6753 6.10959 11.6869 6.30136 11.6888L6.0207 14.2435C6.01602 14.2869 6.02146 14.3308 6.03659 14.3718C6.05173 14.4128 6.07615 14.4497 6.10794 14.4796C6.13972 14.5095 6.17802 14.5317 6.21981 14.5444C6.2616 14.557 6.30576 14.5599 6.34882 14.5526C7.13427 14.4266 8.96679 13.9628 9.66376 12.37C9.90986 11.8054 9.96025 11.1462 9.90341 10.4871C10.3452 10.1756 10.7589 9.82622 11.14 9.44292C13.2948 7.29897 14.7813 3.42271 14.3683 1.62154ZM8.99023 6.8853C8.79347 6.68867 8.65945 6.4381 8.60511 6.16529C8.55077 5.89248 8.57857 5.60969 8.68498 5.35267C8.79139 5.09566 8.97163 4.87598 9.2029 4.72142C9.43418 4.56686 9.7061 4.48436 9.98427 4.48436C10.2624 4.48436 10.5344 4.56686 10.7656 4.72142C10.9969 4.87598 11.1772 5.09566 11.2836 5.35267C11.39 5.60969 11.4178 5.89248 11.3634 6.16529C11.3091 6.4381 11.1751 6.68867 10.9783 6.8853C10.8478 7.01596 10.6929 7.11962 10.5223 7.19034C10.3518 7.26106 10.1689 7.29746 9.98427 7.29746C9.79962 7.29746 9.61679 7.26106 9.44622 7.19034C9.27565 7.11962 9.1207 7.01596 8.99023 6.8853Z" fill="#4FD1C5"/>
<path d="M5.30859 12.2028C5.14805 12.3636 4.89053 12.4263 4.58057 12.4799C3.88418 12.5986 3.26924 11.9968 3.39434 11.2928C3.44209 11.0259 3.5833 10.6518 3.67119 10.5639C3.6904 10.5451 3.70319 10.5207 3.70773 10.4941C3.71228 10.4676 3.70836 10.4403 3.69652 10.4162C3.68468 10.392 3.66553 10.3722 3.64179 10.3595C3.61805 10.3469 3.59092 10.342 3.56426 10.3457C3.17483 10.3933 2.81254 10.5699 2.53506 10.8472C1.84629 11.5366 1.78125 14.0945 1.78125 14.0945C1.78125 14.0945 4.34062 14.0294 5.02939 13.3401C5.30761 13.0628 5.48439 12.7 5.53125 12.31C5.54209 12.1875 5.39297 12.1146 5.30859 12.2028Z" fill="#4FD1C5"/>
</svg>
