<svg width="35" height="4" viewBox="0 0 35 4" fill="none" xmlns="http://www.w3.org/2000/svg">
<path fill-rule="evenodd" clip-rule="evenodd" d="M1.74982 3.49762C2.71632 3.49762 3.49982 2.71412 3.49982 1.74762C3.49982 0.781121 2.71632 -0.00238037 1.74982 -0.00238037C0.783319 -0.00238037 -0.000183105 0.781121 -0.000183105 1.74762C-0.000183105 2.71412 0.783319 3.49762 1.74982 3.49762ZM6.24985 3.49762C7.21635 3.49762 7.99985 2.71412 7.99985 1.74762C7.99985 0.781123 7.21635 -0.00237822 6.24985 -0.00237822C5.28335 -0.00237822 4.49985 0.781123 4.49985 1.74762C4.49985 2.71412 5.28335 3.49762 6.24985 3.49762ZM12.4997 1.74762C12.4997 2.71412 11.7162 3.49762 10.7497 3.49762C9.78316 3.49762 8.99965 2.71412 8.99965 1.74762C8.99965 0.781123 9.78316 -0.00237822 10.7497 -0.00237822C11.7162 -0.00237822 12.4997 0.781123 12.4997 1.74762ZM15.2499 3.49762C16.2164 3.49762 16.9999 2.71412 16.9999 1.74762C16.9999 0.781123 16.2164 -0.00237822 15.2499 -0.00237822C14.2834 -0.00237822 13.4999 0.781123 13.4999 1.74762C13.4999 2.71412 14.2834 3.49762 15.2499 3.49762ZM21.4998 1.74762C21.4998 2.71412 20.7162 3.49762 19.7498 3.49762C18.7833 3.49762 17.9998 2.71412 17.9998 1.74762C17.9998 0.781123 18.7833 -0.00237822 19.7498 -0.00237822C20.7162 -0.00237822 21.4998 0.781123 21.4998 1.74762ZM24.25 3.49762C25.2165 3.49762 26 2.71412 26 1.74762C26 0.781123 25.2165 -0.00237822 24.25 -0.00237822C23.2835 -0.00237822 22.5 0.781123 22.5 1.74762C22.5 2.71412 23.2835 3.49762 24.25 3.49762ZM30.4998 1.74762C30.4998 2.71412 29.7163 3.49762 28.7498 3.49762C27.7834 3.49762 26.9998 2.71412 26.9998 1.74762C26.9998 0.781123 27.7834 -0.00237822 28.7498 -0.00237822C29.7163 -0.00237822 30.4998 0.781123 30.4998 1.74762ZM33.2497 3.49762C34.2162 3.49762 34.9997 2.71412 34.9997 1.74762C34.9997 0.781123 34.2162 -0.00237822 33.2497 -0.00237822C32.2832 -0.00237822 31.4997 0.781123 31.4997 1.74762C31.4997 2.71412 32.2832 3.49762 33.2497 3.49762Z" fill="black"/>
</svg>
