<svg width="35" height="5" viewBox="0 0 35 5" fill="none" xmlns="http://www.w3.org/2000/svg">
<path fill-rule="evenodd" clip-rule="evenodd" d="M1.74982 4.24762C2.71632 4.24762 3.49982 3.46412 3.49982 2.49762C3.49982 1.53112 2.71632 0.74762 1.74982 0.74762C0.783319 0.74762 -0.000183105 1.53112 -0.000183105 2.49762C-0.000183105 3.46412 0.783319 4.24762 1.74982 4.24762ZM6.24985 4.24762C7.21635 4.24762 7.99985 3.46412 7.99985 2.49762C7.99985 1.53112 7.21635 0.74762 6.24985 0.74762C5.28335 0.74762 4.49985 1.53112 4.49985 2.49762C4.49985 3.46412 5.28335 4.24762 6.24985 4.24762ZM12.4997 2.49762C12.4997 3.46412 11.7162 4.24762 10.7497 4.24762C9.78316 4.24762 8.99965 3.46412 8.99965 2.49762C8.99965 1.53112 9.78316 0.74762 10.7497 0.74762C11.7162 0.74762 12.4997 1.53112 12.4997 2.49762ZM15.2499 4.24762C16.2164 4.24762 16.9999 3.46412 16.9999 2.49762C16.9999 1.53112 16.2164 0.74762 15.2499 0.74762C14.2834 0.74762 13.4999 1.53112 13.4999 2.49762C13.4999 3.46412 14.2834 4.24762 15.2499 4.24762ZM21.4998 2.49762C21.4998 3.46412 20.7162 4.24762 19.7498 4.24762C18.7833 4.24762 17.9998 3.46412 17.9998 2.49762C17.9998 1.53112 18.7833 0.74762 19.7498 0.74762C20.7162 0.74762 21.4998 1.53112 21.4998 2.49762ZM24.25 4.24762C25.2165 4.24762 26 3.46412 26 2.49762C26 1.53112 25.2165 0.74762 24.25 0.74762C23.2835 0.74762 22.5 1.53112 22.5 2.49762C22.5 3.46412 23.2835 4.24762 24.25 4.24762ZM30.4998 2.49762C30.4998 3.46412 29.7163 4.24762 28.7498 4.24762C27.7834 4.24762 26.9998 3.46412 26.9998 2.49762C26.9998 1.53112 27.7834 0.74762 28.7498 0.74762C29.7163 0.74762 30.4998 1.53112 30.4998 2.49762ZM33.2497 4.24762C34.2162 4.24762 34.9997 3.46412 34.9997 2.49762C34.9997 1.53112 34.2162 0.74762 33.2497 0.74762C32.2832 0.74762 31.4997 1.53112 31.4997 2.49762C31.4997 3.46412 32.2832 4.24762 33.2497 4.24762Z" fill="black"/>
</svg>
