<svg width="42" height="42" viewBox="0 0 42 42" fill="none" xmlns="http://www.w3.org/2000/svg">
<g filter="url(#filter0_d_23_370)">
<rect x="6.25" y="2.25" width="30" height="30" rx="12" fill="#4FD1C5"/>
</g>
<g clip-path="url(#clip0_23_370)">
<path d="M16.7969 24.2817H15.8594C15.6729 24.2817 15.4941 24.2077 15.3622 24.0758C15.2303 23.9439 15.1562 23.7651 15.1562 23.5786V19.3599C15.1562 19.1734 15.2303 18.9945 15.3622 18.8627C15.4941 18.7308 15.6729 18.6567 15.8594 18.6567H16.7969C16.9834 18.6567 17.1622 18.7308 17.2941 18.8627C17.4259 18.9945 17.5 19.1734 17.5 19.3599V23.5786C17.5 23.7651 17.4259 23.9439 17.2941 24.0758C17.1622 24.2077 16.9834 24.2817 16.7969 24.2817V24.2817Z" fill="white"/>
<path d="M23.3594 24.2808H22.4219C22.2354 24.2808 22.0566 24.2067 21.9247 24.0748C21.7928 23.943 21.7188 23.7641 21.7188 23.5776V16.5464C21.7188 16.3599 21.7928 16.1811 21.9247 16.0492C22.0566 15.9173 22.2354 15.8433 22.4219 15.8433H23.3594C23.5459 15.8433 23.7247 15.9173 23.8566 16.0492C23.9884 16.1811 24.0625 16.3599 24.0625 16.5464V23.5776C24.0625 23.7641 23.9884 23.943 23.8566 24.0748C23.7247 24.2067 23.5459 24.2808 23.3594 24.2808V24.2808Z" fill="white"/>
<path d="M26.6406 24.2812H25.7031C25.5166 24.2812 25.3378 24.2072 25.2059 24.0753C25.0741 23.9434 25 23.7646 25 23.5781V13.2656C25 13.0791 25.0741 12.9003 25.2059 12.7684C25.3378 12.6366 25.5166 12.5625 25.7031 12.5625H26.6406C26.8271 12.5625 27.0059 12.6366 27.1378 12.7684C27.2697 12.9003 27.3437 13.0791 27.3437 13.2656V23.5781C27.3437 23.7646 27.2697 23.9434 27.1378 24.0753C27.0059 24.2072 26.8271 24.2812 26.6406 24.2812V24.2812Z" fill="white"/>
<path d="M20.0781 24.2812H19.1406C18.9541 24.2812 18.7753 24.2072 18.6434 24.0753C18.5116 23.9434 18.4375 23.7646 18.4375 23.5781V10.9219C18.4375 10.7354 18.5116 10.5566 18.6434 10.4247C18.7753 10.2928 18.9541 10.2188 19.1406 10.2188H20.0781C20.2646 10.2188 20.4434 10.2928 20.5753 10.4247C20.7072 10.5566 20.7812 10.7354 20.7812 10.9219V23.5781C20.7812 23.7646 20.7072 23.9434 20.5753 24.0753C20.4434 24.2072 20.2646 24.2812 20.0781 24.2812V24.2812Z" fill="white"/>
</g>
<defs>
<filter id="filter0_d_23_370" x="0.75" y="0.25" width="41" height="41" filterUnits="userSpaceOnUse" color-interpolation-filters="sRGB">
<feFlood flood-opacity="0" result="BackgroundImageFix"/>
<feColorMatrix in="SourceAlpha" type="matrix" values="0 0 0 0 0 0 0 0 0 0 0 0 0 0 0 0 0 0 127 0" result="hardAlpha"/>
<feOffset dy="3.5"/>
<feGaussianBlur stdDeviation="2.75"/>
<feColorMatrix type="matrix" values="0 0 0 0 0 0 0 0 0 0 0 0 0 0 0 0 0 0 0.02 0"/>
<feBlend mode="normal" in2="BackgroundImageFix" result="effect1_dropShadow_23_370"/>
<feBlend mode="normal" in="SourceGraphic" in2="effect1_dropShadow_23_370" result="shape"/>
</filter>
<clipPath id="clip0_23_370">
<rect width="15" height="15" fill="white" transform="translate(13.75 9.75)"/>
</clipPath>
</defs>
</svg>
